M48
; DRILL file {KiCad 8.0.4} date 2025-02-21T19:34:28-0800
; FORMAT={-:-/ absolute / inch / decimal}
; #@! TF.CreationDate,2025-02-21T19:34:28-08:00
; #@! TF.GenerationSoftware,Kicad,Pcbnew,8.0.4
; #@! TF.FileFunction,Plated,1,2,PTH
FMAT,2
INCH
; #@! TA.AperFunction,Plated,PTH,ViaDrill
T1C0.0118
; #@! TA.AperFunction,Plated,PTH,ComponentDrill
T2C0.0374
; #@! TA.AperFunction,Plated,PTH,ComponentDrill
T3C0.0390
%
G90
G05
T1
X5.249Y-3.6575
X5.2726Y-3.8632
X5.3445Y-3.6201
X5.3878Y-4.3701
X5.3957Y-3.9291
X5.4724Y-3.9961
X5.498Y-4.3169
X5.498Y-4.5827
X5.499Y-3.6427
X5.5756Y-3.5662
X5.6122Y-4.7579
X5.6614Y-4.0846
X5.749Y-3.5118
X5.7657Y-4.2057
X5.7756Y-3.7677
X5.8745Y-3.4846
X5.8819Y-4.3071
X5.8858Y-3.4419
X5.8898Y-3.373
X5.9035Y-3.9173
X5.9823Y-3.2972
X5.9921Y-4.4272
X6.0Y-4.3661
X6.0236Y-3.6673
X6.0256Y-3.5906
X6.0433Y-3.2554
X6.0541Y-3.8632
X6.0591Y-4.5335
X6.0925Y-3.2874
X6.128Y-4.0496
X6.1575Y-3.4443
X6.1654Y-3.9744
X6.1654Y-4.2077
X6.1795Y-3.7913
X6.2106Y-3.8465
X6.2153Y-3.998
X6.2165Y-3.7559
X6.22Y-4.315
X6.2205Y-4.3701
X6.2254Y-4.125
X6.2382Y-3.6083
X6.2402Y-3.6949
X6.2421Y-3.8799
X6.2717Y-3.9296
X6.2854Y-4.6909
X6.3031Y-3.6102
X6.3096Y-4.5388
X6.3681Y-4.0669
X6.3768Y-4.5256
X6.4291Y-3.5984
X6.4616Y-3.9611
X6.465Y-4.46
X6.475Y-4.185
X6.4764Y-4.1102
X6.4823Y-3.9232
X6.4855Y-3.8747
X6.499Y-4.0315
X6.5315Y-3.7559
X6.5453Y-4.0374
X6.5846Y-4.0118
X6.6078Y-4.0394
X6.6339Y-4.0906
X6.6579Y-3.9543
X6.6791Y-4.2077
X7.5669Y-4.3976
X7.5827Y-4.5276
X7.5866Y-3.8819
X7.5945Y-3.7362
X7.8031Y-3.6693
X7.8031Y-4.5354
T2
X5.3306Y-4.8129
X5.4002Y-4.8825
X5.4317Y-3.0683
X5.4698Y-4.9521
X5.5013Y-2.9987
X5.5394Y-5.0217
X5.5709Y-2.9291
X5.609Y-5.0913
X5.6786Y-5.1608
T3
X5.2665Y-4.0676
X5.2665Y-4.166
M30
