%TF.GenerationSoftware,KiCad,Pcbnew,8.0.4*%
%TF.CreationDate,2025-02-21T19:34:28-08:00*%
%TF.ProjectId,IO:Sensor Board,494f3a53-656e-4736-9f72-20426f617264,rev?*%
%TF.SameCoordinates,Original*%
%TF.FileFunction,Copper,L1,Top*%
%TF.FilePolarity,Positive*%
%FSLAX46Y46*%
G04 Gerber Fmt 4.6, Leading zero omitted, Abs format (unit mm)*
G04 Created by KiCad (PCBNEW 8.0.4) date 2025-02-21 19:34:28*
%MOMM*%
%LPD*%
G01*
G04 APERTURE LIST*
G04 Aperture macros list*
%AMRoundRect*
0 Rectangle with rounded corners*
0 $1 Rounding radius*
0 $2 $3 $4 $5 $6 $7 $8 $9 X,Y pos of 4 corners*
0 Add a 4 corners polygon primitive as box body*
4,1,4,$2,$3,$4,$5,$6,$7,$8,$9,$2,$3,0*
0 Add four circle primitives for the rounded corners*
1,1,$1+$1,$2,$3*
1,1,$1+$1,$4,$5*
1,1,$1+$1,$6,$7*
1,1,$1+$1,$8,$9*
0 Add four rect primitives between the rounded corners*
20,1,$1+$1,$2,$3,$4,$5,0*
20,1,$1+$1,$4,$5,$6,$7,0*
20,1,$1+$1,$6,$7,$8,$9,0*
20,1,$1+$1,$8,$9,$2,$3,0*%
%AMHorizOval*
0 Thick line with rounded ends*
0 $1 width*
0 $2 $3 position (X,Y) of the first rounded end (center of the circle)*
0 $4 $5 position (X,Y) of the second rounded end (center of the circle)*
0 Add line between two ends*
20,1,$1,$2,$3,$4,$5,0*
0 Add two circle primitives to create the rounded ends*
1,1,$1,$2,$3*
1,1,$1,$4,$5*%
G04 Aperture macros list end*
%TA.AperFunction,SMDPad,CuDef*%
%ADD10RoundRect,0.150000X-0.468458X0.256326X0.256326X-0.468458X0.468458X-0.256326X-0.256326X0.468458X0*%
%TD*%
%TA.AperFunction,SMDPad,CuDef*%
%ADD11RoundRect,0.150000X-0.512500X-0.150000X0.512500X-0.150000X0.512500X0.150000X-0.512500X0.150000X0*%
%TD*%
%TA.AperFunction,SMDPad,CuDef*%
%ADD12RoundRect,0.250000X-0.574524X-0.097227X-0.097227X-0.574524X0.574524X0.097227X0.097227X0.574524X0*%
%TD*%
%TA.AperFunction,SMDPad,CuDef*%
%ADD13RoundRect,0.250000X-0.337500X-0.475000X0.337500X-0.475000X0.337500X0.475000X-0.337500X0.475000X0*%
%TD*%
%TA.AperFunction,SMDPad,CuDef*%
%ADD14RoundRect,0.250000X0.097227X-0.574524X0.574524X-0.097227X-0.097227X0.574524X-0.574524X0.097227X0*%
%TD*%
%TA.AperFunction,ComponentPad*%
%ADD15HorizOval,1.700000X-0.088388X0.088388X0.088388X-0.088388X0*%
%TD*%
%TA.AperFunction,ComponentPad*%
%ADD16RoundRect,0.250000X0.088388X-0.936916X0.936916X-0.088388X-0.088388X0.936916X-0.936916X0.088388X0*%
%TD*%
%TA.AperFunction,SMDPad,CuDef*%
%ADD17RoundRect,0.250000X0.337500X0.475000X-0.337500X0.475000X-0.337500X-0.475000X0.337500X-0.475000X0*%
%TD*%
%TA.AperFunction,SMDPad,CuDef*%
%ADD18R,0.700000X0.200000*%
%TD*%
%TA.AperFunction,SMDPad,CuDef*%
%ADD19R,0.254000X0.254000*%
%TD*%
%TA.AperFunction,SMDPad,CuDef*%
%ADD20R,0.254000X0.279400*%
%TD*%
%TA.AperFunction,ComponentPad*%
%ADD21C,1.498600*%
%TD*%
%TA.AperFunction,SMDPad,CuDef*%
%ADD22RoundRect,0.250000X0.475000X-0.337500X0.475000X0.337500X-0.475000X0.337500X-0.475000X-0.337500X0*%
%TD*%
%TA.AperFunction,SMDPad,CuDef*%
%ADD23R,0.203200X0.660400*%
%TD*%
%TA.AperFunction,SMDPad,CuDef*%
%ADD24R,0.660400X0.203200*%
%TD*%
%TA.AperFunction,ComponentPad*%
%ADD25HorizOval,1.700000X0.088388X0.088388X-0.088388X-0.088388X0*%
%TD*%
%TA.AperFunction,ComponentPad*%
%ADD26RoundRect,0.250000X0.936916X0.088388X0.088388X0.936916X-0.936916X-0.088388X-0.088388X-0.936916X0*%
%TD*%
%TA.AperFunction,ViaPad*%
%ADD27C,0.600000*%
%TD*%
%TA.AperFunction,Conductor*%
%ADD28C,0.750000*%
%TD*%
%TA.AperFunction,Conductor*%
%ADD29C,0.200000*%
%TD*%
%TA.AperFunction,Conductor*%
%ADD30C,0.175000*%
%TD*%
%TA.AperFunction,Conductor*%
%ADD31C,0.500000*%
%TD*%
%TA.AperFunction,Conductor*%
%ADD32C,0.250000*%
%TD*%
G04 APERTURE END LIST*
D10*
%TO.P,U5,1,IN*%
%TO.N,+5V*%
X142017417Y-93523915D03*
%TO.P,U5,2,GND*%
%TO.N,GND*%
X141345666Y-94195666D03*
%TO.P,U5,3,EN*%
%TO.N,+5V*%
X140673915Y-94867417D03*
%TO.P,U5,4,BP*%
%TO.N,Net-(U5-BP)*%
X142282583Y-96476085D03*
%TO.P,U5,5,OUT*%
%TO.N,+1.8V*%
X143626085Y-95132583D03*
%TD*%
D11*
%TO.P,U3,5,OUT*%
%TO.N,+3.3V_b*%
X143650000Y-114750000D03*
%TO.P,U3,4,BP*%
%TO.N,Net-(U3-BP)*%
X143650000Y-116650000D03*
%TO.P,U3,3,EN*%
%TO.N,+5V*%
X141375000Y-116650000D03*
%TO.P,U3,2,GND*%
%TO.N,GND*%
X141375000Y-115700000D03*
%TO.P,U3,1,IN*%
%TO.N,+5V*%
X141375000Y-114750000D03*
%TD*%
D12*
%TO.P,C8,2*%
%TO.N,+1.8V*%
X144766294Y-93797919D03*
%TO.P,C8,1*%
%TO.N,GND*%
X143299048Y-92330673D03*
%TD*%
D13*
%TO.P,C7,2*%
%TO.N,+3.3V_b*%
X143650000Y-112650000D03*
%TO.P,C7,1*%
%TO.N,GND*%
X141575000Y-112650000D03*
%TD*%
D14*
%TO.P,C6,2*%
%TO.N,Net-(U5-BP)*%
X141115856Y-97801911D03*
%TO.P,C6,1*%
%TO.N,GND*%
X139648610Y-99269157D03*
%TD*%
D13*
%TO.P,C5,2*%
%TO.N,Net-(U3-BP)*%
X143650000Y-118650000D03*
%TO.P,C5,1*%
%TO.N,GND*%
X141575000Y-118650000D03*
%TD*%
D14*
%TO.P,C4,2*%
%TO.N,+5V*%
X139524865Y-96210920D03*
%TO.P,C4,1*%
%TO.N,GND*%
X138057619Y-97678166D03*
%TD*%
D12*
%TO.P,C1,1*%
%TO.N,GND*%
X137666377Y-113416377D03*
%TO.P,C1,2*%
%TO.N,+5V*%
X139133623Y-114883623D03*
%TD*%
D15*
%TO.P,J1,3,3*%
%TO.N,PYRO_3*%
X141500000Y-74400000D03*
%TO.P,J1,2,2*%
%TO.N,PYRO_2*%
X139732233Y-76167767D03*
D16*
%TO.P,J1,1,1*%
%TO.N,PYRO_1*%
X137964466Y-77935534D03*
%TD*%
D17*
%TO.P,C3,2*%
%TO.N,GND*%
X150925000Y-89150000D03*
%TO.P,C3,1*%
%TO.N,+3.3V_b*%
X153000000Y-89150000D03*
%TD*%
D18*
%TO.P,Module1,1,GND*%
%TO.N,GND*%
X160199850Y-94400000D03*
%TO.P,Module1,2,GND*%
X163279850Y-94400000D03*
%TO.P,Module1,3,Ethernet_Pair3_P*%
%TO.N,unconnected-(Module1A-Ethernet_Pair3_P-Pad3)*%
X160199850Y-94800000D03*
%TO.P,Module1,4,Ethernet_Pair1_P*%
%TO.N,unconnected-(Module1A-Ethernet_Pair1_P-Pad4)*%
X163279850Y-94800000D03*
%TO.P,Module1,5,Ethernet_Pair3_N*%
%TO.N,unconnected-(Module1A-Ethernet_Pair3_N-Pad5)*%
X160199850Y-95200000D03*
%TO.P,Module1,6,Ethernet_Pair1_N*%
%TO.N,unconnected-(Module1A-Ethernet_Pair1_N-Pad6)*%
X163279850Y-95200000D03*
%TO.P,Module1,7,GND*%
%TO.N,GND*%
X160199850Y-95600000D03*
%TO.P,Module1,8,GND*%
X163279850Y-95600000D03*
%TO.P,Module1,9,Ethernet_Pair2_N*%
%TO.N,unconnected-(Module1A-Ethernet_Pair2_N-Pad9)*%
X160199850Y-96000000D03*
%TO.P,Module1,10,Ethernet_Pair0_N*%
%TO.N,unconnected-(Module1A-Ethernet_Pair0_N-Pad10)*%
X163279850Y-96000000D03*
%TO.P,Module1,11,Ethernet_Pair2_P*%
%TO.N,unconnected-(Module1A-Ethernet_Pair2_P-Pad11)*%
X160199850Y-96400000D03*
%TO.P,Module1,12,Ethernet_Pair0_P*%
%TO.N,unconnected-(Module1A-Ethernet_Pair0_P-Pad12)*%
X163279850Y-96400000D03*
%TO.P,Module1,13,GND*%
%TO.N,GND*%
X160199850Y-96800000D03*
%TO.P,Module1,14,GND*%
X163279850Y-96800000D03*
%TO.P,Module1,15,Ethernet_nLED3(3.3v)*%
%TO.N,unconnected-(Module1A-Ethernet_nLED3(3.3v)-Pad15)*%
X160199850Y-97200000D03*
%TO.P,Module1,16,Ethernet_SYNC_IN(1.8v)*%
%TO.N,unconnected-(Module1A-Ethernet_SYNC_IN(1.8v)-Pad16)*%
X163279850Y-97200000D03*
%TO.P,Module1,17,Ethernet_nLED2(3.3v)*%
%TO.N,unconnected-(Module1A-Ethernet_nLED2(3.3v)-Pad17)*%
X160199850Y-97600000D03*
%TO.P,Module1,18,Ethernet_SYNC_OUT(1.8v)*%
%TO.N,unconnected-(Module1A-Ethernet_SYNC_OUT(1.8v)-Pad18)*%
X163279850Y-97600000D03*
%TO.P,Module1,19,Ethernet_nLED1(3.3v)*%
%TO.N,unconnected-(Module1A-Ethernet_nLED1(3.3v)-Pad19)*%
X160199850Y-98000000D03*
%TO.P,Module1,20,EEPROM_nWP*%
%TO.N,unconnected-(Module1A-EEPROM_nWP-Pad20)*%
X163279850Y-98000000D03*
%TO.P,Module1,21,PI_nLED_Activity*%
%TO.N,unconnected-(Module1A-PI_nLED_Activity-Pad21)*%
X160199850Y-98400000D03*
%TO.P,Module1,22,GND*%
%TO.N,GND*%
X163279850Y-98400000D03*
%TO.P,Module1,23,GND*%
X160199850Y-98800000D03*
%TO.P,Module1,24,GPIO26*%
%TO.N,unconnected-(Module1A-GPIO26-Pad24)*%
X163279850Y-98800000D03*
%TO.P,Module1,25,GPIO21*%
%TO.N,PYRO_4*%
X160199850Y-99200000D03*
%TO.P,Module1,26,GPIO19*%
%TO.N,SERVO_3*%
X163279850Y-99200000D03*
%TO.P,Module1,27,GPIO20*%
%TO.N,PYRO_5*%
X160199850Y-99600000D03*
%TO.P,Module1,28,GPIO13*%
%TO.N,SERVO_2*%
X163279850Y-99600000D03*
%TO.P,Module1,29,GPIO16*%
%TO.N,unconnected-(Module1A-GPIO16-Pad29)*%
X160199850Y-100000000D03*
%TO.P,Module1,30,GPIO6*%
%TO.N,unconnected-(Module1A-GPIO6-Pad30)*%
X163279850Y-100000000D03*
%TO.P,Module1,31,GPIO12*%
%TO.N,SERVO_4*%
X160199850Y-100400000D03*
%TO.P,Module1,32,GND*%
%TO.N,GND*%
X163279850Y-100400000D03*
%TO.P,Module1,33,GND*%
X160199850Y-100800000D03*
%TO.P,Module1,34,GPIO5*%
%TO.N,unconnected-(Module1A-GPIO5-Pad34)*%
X163279850Y-100800000D03*
%TO.P,Module1,35,ID_SC*%
%TO.N,ICM_MISO*%
X160199850Y-101200000D03*
%TO.P,Module1,36,ID_SD*%
%TO.N,ICM_INT*%
X163279850Y-101200000D03*
%TO.P,Module1,37,GPIO7*%
%TO.N,BMP_CS*%
X160199850Y-101600000D03*
%TO.P,Module1,38,GPIO11*%
%TO.N,BMP_CLK*%
X163279850Y-101600000D03*
%TO.P,Module1,39,GPIO8*%
%TO.N,BMP_INT*%
X160199850Y-102000000D03*
%TO.P,Module1,40,GPIO9*%
%TO.N,BMP_MISO*%
X163279850Y-102000000D03*
%TO.P,Module1,41,GPIO25*%
%TO.N,PYRO_1*%
X160199850Y-102400000D03*
%TO.P,Module1,42,GND*%
%TO.N,GND*%
X163279850Y-102400000D03*
%TO.P,Module1,43,GND*%
X160199850Y-102800000D03*
%TO.P,Module1,44,GPIO10*%
%TO.N,BMP_MOSI*%
X163279850Y-102800000D03*
%TO.P,Module1,45,GPIO24*%
%TO.N,ICM_CS*%
X160199850Y-103200000D03*
%TO.P,Module1,46,GPIO22*%
%TO.N,unconnected-(Module1A-GPIO22-Pad46)*%
X163279850Y-103200000D03*
%TO.P,Module1,47,GPIO23*%
%TO.N,PYRO_3*%
X160199850Y-103600000D03*
%TO.P,Module1,48,GPIO27*%
%TO.N,FSYNC*%
X163279850Y-103600000D03*
%TO.P,Module1,49,GPIO18*%
%TO.N,SERVO_1*%
X160199850Y-104000000D03*
%TO.P,Module1,50,GPIO17*%
%TO.N,unconnected-(Module1A-GPIO17-Pad50)*%
X163279850Y-104000000D03*
%TO.P,Module1,51,GPIO15*%
%TO.N,PYRO_2*%
X160199850Y-104400000D03*
%TO.P,Module1,52,GND*%
%TO.N,GND*%
X163279850Y-104400000D03*
%TO.P,Module1,53,GND*%
X160199850Y-104800000D03*
%TO.P,Module1,54,GPIO4*%
%TO.N,unconnected-(Module1A-GPIO4-Pad54)*%
X163279850Y-104800000D03*
%TO.P,Module1,55,GPIO14*%
%TO.N,unconnected-(Module1A-GPIO14-Pad55)*%
X160199850Y-105200000D03*
%TO.P,Module1,56,GPIO3*%
%TO.N,ICM_CLK*%
X163279850Y-105200000D03*
%TO.P,Module1,57,SD_CLK*%
%TO.N,unconnected-(Module1A-SD_CLK-Pad57)*%
X160199850Y-105600000D03*
%TO.P,Module1,58,GPIO2*%
%TO.N,ICM_MOSI*%
X163279850Y-105600000D03*
%TO.P,Module1,59,GND*%
%TO.N,GND*%
X160199850Y-106000000D03*
%TO.P,Module1,60,GND*%
X163279850Y-106000000D03*
%TO.P,Module1,61,SD_DAT3*%
%TO.N,unconnected-(Module1A-SD_DAT3-Pad61)*%
X160199850Y-106400000D03*
%TO.P,Module1,62,SD_CMD*%
%TO.N,unconnected-(Module1A-SD_CMD-Pad62)*%
X163279850Y-106400000D03*
%TO.P,Module1,63,SD_DAT0*%
%TO.N,unconnected-(Module1A-SD_DAT0-Pad63)*%
X160199850Y-106800000D03*
%TO.P,Module1,64,SD_DAT5*%
%TO.N,unconnected-(Module1A-SD_DAT5-Pad64)*%
X163279850Y-106800000D03*
%TO.P,Module1,65,GND*%
%TO.N,GND*%
X160199850Y-107200000D03*
%TO.P,Module1,66,GND*%
X163279850Y-107200000D03*
%TO.P,Module1,67,SD_DAT1*%
%TO.N,unconnected-(Module1A-SD_DAT1-Pad67)*%
X160199850Y-107600000D03*
%TO.P,Module1,68,SD_DAT4*%
%TO.N,unconnected-(Module1A-SD_DAT4-Pad68)*%
X163279850Y-107600000D03*
%TO.P,Module1,69,SD_DAT2*%
%TO.N,unconnected-(Module1A-SD_DAT2-Pad69)*%
X160199850Y-108000000D03*
%TO.P,Module1,70,SD_DAT7*%
%TO.N,unconnected-(Module1A-SD_DAT7-Pad70)*%
X163279850Y-108000000D03*
%TO.P,Module1,71,GND*%
%TO.N,GND*%
X160199850Y-108400000D03*
%TO.P,Module1,72,SD_DAT6*%
%TO.N,unconnected-(Module1A-SD_DAT6-Pad72)*%
X163279850Y-108400000D03*
%TO.P,Module1,73,SD_VDD_Override*%
%TO.N,unconnected-(Module1A-SD_VDD_Override-Pad73)*%
X160199850Y-108800000D03*
%TO.P,Module1,74,GND*%
%TO.N,GND*%
X163279850Y-108800000D03*
%TO.P,Module1,75,SD_PWR_ON*%
%TO.N,unconnected-(Module1A-SD_PWR_ON-Pad75)*%
X160199850Y-109200000D03*
%TO.P,Module1,76,Reserved*%
%TO.N,unconnected-(Module1A-Reserved-Pad76)*%
X163279850Y-109200000D03*
%TO.P,Module1,77,+5v_(Input)*%
%TO.N,+5V*%
X160199850Y-109600000D03*
%TO.P,Module1,78,GPIO_VREF(1.8v/3.3v_Input)*%
%TO.N,+3.3V_a*%
X163279850Y-109600000D03*
%TO.P,Module1,79,+5v_(Input)*%
%TO.N,+5V*%
X160199850Y-110000000D03*
%TO.P,Module1,80,SCL0*%
%TO.N,SCL_1*%
X163279850Y-110000000D03*
%TO.P,Module1,81,+5v_(Input)*%
%TO.N,+5V*%
X160199850Y-110400000D03*
%TO.P,Module1,82,SDA0*%
%TO.N,SDA_1*%
X163279850Y-110400000D03*
%TO.P,Module1,83,+5v_(Input)*%
%TO.N,+5V*%
X160199850Y-110800000D03*
%TO.P,Module1,84,+3.3v_(Output)*%
%TO.N,+3.3V_a*%
X163279850Y-110800000D03*
%TO.P,Module1,85,+5v_(Input)*%
%TO.N,+5V*%
X160199850Y-111200000D03*
%TO.P,Module1,86,+3.3v_(Output)*%
%TO.N,+3.3V_a*%
X163279850Y-111200000D03*
%TO.P,Module1,87,+5v_(Input)*%
%TO.N,+5V*%
X160199850Y-111600000D03*
%TO.P,Module1,88,+1.8v_(Output)*%
%TO.N,unconnected-(Module1A-+1.8v_(Output)-Pad88)*%
X163279850Y-111600000D03*
%TO.P,Module1,89,WiFi_nDisable*%
%TO.N,unconnected-(Module1A-WiFi_nDisable-Pad89)*%
X160199850Y-112000000D03*
%TO.P,Module1,90,+1.8v_(Output)*%
%TO.N,unconnected-(Module1A-+1.8v_(Output)-Pad90)*%
X163279850Y-112000000D03*
%TO.P,Module1,91,BT_nDisable*%
%TO.N,unconnected-(Module1A-BT_nDisable-Pad91)*%
X160199850Y-112400000D03*
%TO.P,Module1,92,RUN_PG*%
%TO.N,unconnected-(Module1A-RUN_PG-Pad92)*%
X163279850Y-112400000D03*
%TO.P,Module1,93,nRPIBOOT*%
%TO.N,unconnected-(Module1A-nRPIBOOT-Pad93)*%
X160199850Y-112800000D03*
%TO.P,Module1,94,AnalogIP1*%
%TO.N,unconnected-(Module1A-AnalogIP1-Pad94)*%
X163279850Y-112800000D03*
%TO.P,Module1,95,nPI_LED_PWR*%
%TO.N,unconnected-(Module1A-nPI_LED_PWR-Pad95)*%
X160199850Y-113200000D03*
%TO.P,Module1,96,AnalogIP0*%
%TO.N,unconnected-(Module1A-AnalogIP0-Pad96)*%
X163279850Y-113200000D03*
%TO.P,Module1,97,Camera_GPIO*%
%TO.N,unconnected-(Module1A-Camera_GPIO-Pad97)*%
X160199850Y-113600000D03*
%TO.P,Module1,98,GND*%
%TO.N,GND*%
X163279850Y-113600000D03*
%TO.P,Module1,99,Global_EN*%
%TO.N,unconnected-(Module1A-Global_EN-Pad99)*%
X160199850Y-114000000D03*
%TO.P,Module1,100,nEXTRST*%
%TO.N,unconnected-(Module1A-nEXTRST-Pad100)*%
X163279850Y-114000000D03*
%TO.P,Module1,101,USB_OTG_ID*%
%TO.N,unconnected-(Module1B-USB_OTG_ID-Pad101)*%
X194119850Y-94400000D03*
%TO.P,Module1,102,PCIe_CLK_nREQ*%
%TO.N,unconnected-(Module1B-PCIe_CLK_nREQ-Pad102)*%
X197199850Y-94400000D03*
%TO.P,Module1,103,USB2_N*%
%TO.N,unconnected-(Module1B-USB2_N-Pad103)*%
X194119850Y-94800000D03*
%TO.P,Module1,104,Reserved*%
%TO.N,unconnected-(Module1B-Reserved-Pad104)*%
X197199850Y-94800000D03*
%TO.P,Module1,105,USB2_P*%
%TO.N,unconnected-(Module1B-USB2_P-Pad105)*%
X194119850Y-95200000D03*
%TO.P,Module1,106,Reserved*%
%TO.N,unconnected-(Module1B-Reserved-Pad106)*%
X197199850Y-95200000D03*
%TO.P,Module1,107,GND*%
%TO.N,GND*%
X194119850Y-95600000D03*
%TO.P,Module1,108,GND*%
X197199850Y-95600000D03*
%TO.P,Module1,109,PCIe_nRST*%
%TO.N,unconnected-(Module1B-PCIe_nRST-Pad109)*%
X194119850Y-96000000D03*
%TO.P,Module1,110,PCIe_CLK_P*%
%TO.N,unconnected-(Module1B-PCIe_CLK_P-Pad110)*%
X197199850Y-96000000D03*
%TO.P,Module1,111,VDAC_COMP*%
%TO.N,unconnected-(Module1B-VDAC_COMP-Pad111)*%
X194119850Y-96400000D03*
%TO.P,Module1,112,PCIe_CLK_N*%
%TO.N,unconnected-(Module1B-PCIe_CLK_N-Pad112)*%
X197199850Y-96400000D03*
%TO.P,Module1,113,GND*%
%TO.N,GND*%
X194119850Y-96800000D03*
%TO.P,Module1,114,GND*%
%TO.N,unconnected-(Module1B-GND-Pad114)*%
X197199850Y-96800000D03*
%TO.P,Module1,115,CAM1_D0_N*%
%TO.N,unconnected-(Module1B-CAM1_D0_N-Pad115)*%
X194119850Y-97200000D03*
%TO.P,Module1,116,PCIe_RX_P*%
%TO.N,unconnected-(Module1B-PCIe_RX_P-Pad116)*%
X197199850Y-97200000D03*
%TO.P,Module1,117,CAM1_D0_P*%
%TO.N,unconnected-(Module1B-CAM1_D0_P-Pad117)*%
X194119850Y-97600000D03*
%TO.P,Module1,118,PCIe_RX_N*%
%TO.N,unconnected-(Module1B-PCIe_RX_N-Pad118)*%
X197199850Y-97600000D03*
%TO.P,Module1,119,GND*%
%TO.N,GND*%
X194119850Y-98000000D03*
%TO.P,Module1,120,GND*%
X197199850Y-98000000D03*
%TO.P,Module1,121,CAM1_D1_N*%
%TO.N,unconnected-(Module1B-CAM1_D1_N-Pad121)*%
X194119850Y-98400000D03*
%TO.P,Module1,122,PCIe_TX_P*%
%TO.N,unconnected-(Module1B-PCIe_TX_P-Pad122)*%
X197199850Y-98400000D03*
%TO.P,Module1,123,CAM1_D1_P*%
%TO.N,unconnected-(Module1B-CAM1_D1_P-Pad123)*%
X194119850Y-98800000D03*
%TO.P,Module1,124,PCIe_TX_N*%
%TO.N,unconnected-(Module1B-PCIe_TX_N-Pad124)*%
X197199850Y-98800000D03*
%TO.P,Module1,125,GND*%
%TO.N,GND*%
X194119850Y-99200000D03*
%TO.P,Module1,126,GND*%
X197199850Y-99200000D03*
%TO.P,Module1,127,CAM1_C_N*%
%TO.N,unconnected-(Module1B-CAM1_C_N-Pad127)*%
X194119850Y-99600000D03*
%TO.P,Module1,128,CAM0_D0_N*%
%TO.N,unconnected-(Module1B-CAM0_D0_N-Pad128)*%
X197199850Y-99600000D03*
%TO.P,Module1,129,CAM1_C_P*%
%TO.N,unconnected-(Module1B-CAM1_C_P-Pad129)*%
X194119850Y-100000000D03*
%TO.P,Module1,130,CAM0_D0_P*%
%TO.N,unconnected-(Module1B-CAM0_D0_P-Pad130)*%
X197199850Y-100000000D03*
%TO.P,Module1,131,GND*%
%TO.N,GND*%
X194119850Y-100400000D03*
%TO.P,Module1,132,GND*%
X197199850Y-100400000D03*
%TO.P,Module1,133,CAM1_D2_N*%
%TO.N,unconnected-(Module1B-CAM1_D2_N-Pad133)*%
X194119850Y-100800000D03*
%TO.P,Module1,134,CAM0_D1_N*%
%TO.N,unconnected-(Module1B-CAM0_D1_N-Pad134)*%
X197199850Y-100800000D03*
%TO.P,Module1,135,CAM1_D2_P*%
%TO.N,unconnected-(Module1B-CAM1_D2_P-Pad135)*%
X194119850Y-101200000D03*
%TO.P,Module1,136,CAM0_D1_P*%
%TO.N,unconnected-(Module1B-CAM0_D1_P-Pad136)*%
X197199850Y-101200000D03*
%TO.P,Module1,137,GND*%
%TO.N,GND*%
X194119850Y-101600000D03*
%TO.P,Module1,138,GND*%
X197199850Y-101600000D03*
%TO.P,Module1,139,CAM1_D3_N*%
%TO.N,unconnected-(Module1B-CAM1_D3_N-Pad139)*%
X194119850Y-102000000D03*
%TO.P,Module1,140,CAM0_C_N*%
%TO.N,unconnected-(Module1B-CAM0_C_N-Pad140)*%
X197199850Y-102000000D03*
%TO.P,Module1,141,CAM1_D3_P*%
%TO.N,unconnected-(Module1B-CAM1_D3_P-Pad141)*%
X194119850Y-102400000D03*
%TO.P,Module1,142,CAM0_C_P*%
%TO.N,unconnected-(Module1B-CAM0_C_P-Pad142)*%
X197199850Y-102400000D03*
%TO.P,Module1,143,HDMI1_HOTPLUG*%
%TO.N,unconnected-(Module1B-HDMI1_HOTPLUG-Pad143)*%
X194119850Y-102800000D03*
%TO.P,Module1,144,GND*%
%TO.N,GND*%
X197199850Y-102800000D03*
%TO.P,Module1,145,HDMI1_SDA*%
%TO.N,unconnected-(Module1B-HDMI1_SDA-Pad145)*%
X194119850Y-103200000D03*
%TO.P,Module1,146,HDMI1_TX2_P*%
%TO.N,unconnected-(Module1B-HDMI1_TX2_P-Pad146)*%
X197199850Y-103200000D03*
%TO.P,Module1,147,HDMI1_SCL*%
%TO.N,unconnected-(Module1B-HDMI1_SCL-Pad147)*%
X194119850Y-103600000D03*
%TO.P,Module1,148,HDMI1_TX2_N*%
%TO.N,unconnected-(Module1B-HDMI1_TX2_N-Pad148)*%
X197199850Y-103600000D03*
%TO.P,Module1,149,HDMI1_CEC*%
%TO.N,unconnected-(Module1B-HDMI1_CEC-Pad149)*%
X194119850Y-104000000D03*
%TO.P,Module1,150,GND*%
%TO.N,GND*%
X197199850Y-104000000D03*
%TO.P,Module1,151,HDMI0_CEC*%
%TO.N,unconnected-(Module1B-HDMI0_CEC-Pad151)*%
X194119850Y-104400000D03*
%TO.P,Module1,152,HDMI1_TX1_P*%
%TO.N,unconnected-(Module1B-HDMI1_TX1_P-Pad152)*%
X197199850Y-104400000D03*
%TO.P,Module1,153,HDMI0_HOTPLUG*%
%TO.N,unconnected-(Module1B-HDMI0_HOTPLUG-Pad153)*%
X194119850Y-104800000D03*
%TO.P,Module1,154,HDMI1_TX1_N*%
%TO.N,unconnected-(Module1B-HDMI1_TX1_N-Pad154)*%
X197199850Y-104800000D03*
%TO.P,Module1,155,GND*%
%TO.N,GND*%
X194119850Y-105200000D03*
%TO.P,Module1,156,GND*%
X197199850Y-105200000D03*
%TO.P,Module1,157,DSI0_D0_N*%
%TO.N,unconnected-(Module1B-DSI0_D0_N-Pad157)*%
X194119850Y-105600000D03*
%TO.P,Module1,158,HDMI1_TX0_P*%
%TO.N,unconnected-(Module1B-HDMI1_TX0_P-Pad158)*%
X197199850Y-105600000D03*
%TO.P,Module1,159,DSI0_D0_P*%
%TO.N,unconnected-(Module1B-DSI0_D0_P-Pad159)*%
X194119850Y-106000000D03*
%TO.P,Module1,160,HDMI1_TX0_N*%
%TO.N,unconnected-(Module1B-HDMI1_TX0_N-Pad160)*%
X197199850Y-106000000D03*
%TO.P,Module1,161,GND*%
%TO.N,GND*%
X194119850Y-106400000D03*
%TO.P,Module1,162,GND*%
X197199850Y-106400000D03*
%TO.P,Module1,163,DSI0_D1_N*%
%TO.N,unconnected-(Module1B-DSI0_D1_N-Pad163)*%
X194119850Y-106800000D03*
%TO.P,Module1,164,HDMI1_CLK_P*%
%TO.N,unconnected-(Module1B-HDMI1_CLK_P-Pad164)*%
X197199850Y-106800000D03*
%TO.P,Module1,165,DSI0_D1_P*%
%TO.N,unconnected-(Module1B-DSI0_D1_P-Pad165)*%
X194119850Y-107200000D03*
%TO.P,Module1,166,HDMI1_CLK_N*%
%TO.N,unconnected-(Module1B-HDMI1_CLK_N-Pad166)*%
X197199850Y-107200000D03*
%TO.P,Module1,167,GND*%
%TO.N,GND*%
X194119850Y-107600000D03*
%TO.P,Module1,168,GND*%
X197199850Y-107600000D03*
%TO.P,Module1,169,DSI0_C_N*%
%TO.N,unconnected-(Module1B-DSI0_C_N-Pad169)*%
X194119850Y-108000000D03*
%TO.P,Module1,170,HDMI0_TX2_P*%
%TO.N,unconnected-(Module1B-HDMI0_TX2_P-Pad170)*%
X197199850Y-108000000D03*
%TO.P,Module1,171,DSI0_C_P*%
%TO.N,unconnected-(Module1B-DSI0_C_P-Pad171)*%
X194119850Y-108400000D03*
%TO.P,Module1,172,HDMI0_TX2_N*%
%TO.N,unconnected-(Module1B-HDMI0_TX2_N-Pad172)*%
X197199850Y-108400000D03*
%TO.P,Module1,173,GND*%
%TO.N,GND*%
X194119850Y-108800000D03*
%TO.P,Module1,174,GND*%
X197199850Y-108800000D03*
%TO.P,Module1,175,DSI1_D0_N*%
%TO.N,unconnected-(Module1B-DSI1_D0_N-Pad175)*%
X194119850Y-109200000D03*
%TO.P,Module1,176,HDMI0_TX1_P*%
%TO.N,unconnected-(Module1B-HDMI0_TX1_P-Pad176)*%
X197199850Y-109200000D03*
%TO.P,Module1,177,DSI1_D0_P*%
%TO.N,unconnected-(Module1B-DSI1_D0_P-Pad177)*%
X194119850Y-109600000D03*
%TO.P,Module1,178,HDMI0_TX1_N*%
%TO.N,unconnected-(Module1B-HDMI0_TX1_N-Pad178)*%
X197199850Y-109600000D03*
%TO.P,Module1,179,GND*%
%TO.N,GND*%
X194119850Y-110000000D03*
%TO.P,Module1,180,GND*%
X197199850Y-110000000D03*
%TO.P,Module1,181,DSI1_D1_N*%
%TO.N,unconnected-(Module1B-DSI1_D1_N-Pad181)*%
X194119850Y-110400000D03*
%TO.P,Module1,182,HDMI0_TX0_P*%
%TO.N,unconnected-(Module1B-HDMI0_TX0_P-Pad182)*%
X197199850Y-110400000D03*
%TO.P,Module1,183,DSI1_D1_P*%
%TO.N,unconnected-(Module1B-DSI1_D1_P-Pad183)*%
X194119850Y-110800000D03*
%TO.P,Module1,184,HDMI0_TX0_N*%
%TO.N,unconnected-(Module1B-HDMI0_TX0_N-Pad184)*%
X197199850Y-110800000D03*
%TO.P,Module1,185,GND*%
%TO.N,GND*%
X194119850Y-111200000D03*
%TO.P,Module1,186,GND*%
X197199850Y-111200000D03*
%TO.P,Module1,187,DSI1_C_N*%
%TO.N,unconnected-(Module1B-DSI1_C_N-Pad187)*%
X194119850Y-111600000D03*
%TO.P,Module1,188,HDMI0_CLK_P*%
%TO.N,unconnected-(Module1B-HDMI0_CLK_P-Pad188)*%
X197199850Y-111600000D03*
%TO.P,Module1,189,DSI1_C_P*%
%TO.N,unconnected-(Module1B-DSI1_C_P-Pad189)*%
X194119850Y-112000000D03*
%TO.P,Module1,190,HDMI0_CLK_N*%
%TO.N,unconnected-(Module1B-HDMI0_CLK_N-Pad190)*%
X197199850Y-112000000D03*
%TO.P,Module1,191,GND*%
%TO.N,GND*%
X194119850Y-112400000D03*
%TO.P,Module1,192,GND*%
X197199850Y-112400000D03*
%TO.P,Module1,193,DSI1_D2_N*%
%TO.N,unconnected-(Module1B-DSI1_D2_N-Pad193)*%
X194119850Y-112800000D03*
%TO.P,Module1,194,DSI1_D3_N*%
%TO.N,unconnected-(Module1B-DSI1_D3_N-Pad194)*%
X197199850Y-112800000D03*
%TO.P,Module1,195,DSI1_D2_P*%
%TO.N,unconnected-(Module1B-DSI1_D2_P-Pad195)*%
X194119850Y-113200000D03*
%TO.P,Module1,196,DSI1_D3_P*%
%TO.N,unconnected-(Module1B-DSI1_D3_P-Pad196)*%
X197199850Y-113200000D03*
%TO.P,Module1,197,GND*%
%TO.N,GND*%
X194119850Y-113600000D03*
%TO.P,Module1,198,GND*%
X197199850Y-113600000D03*
%TO.P,Module1,199,HDMI0_SDA*%
%TO.N,unconnected-(Module1B-HDMI0_SDA-Pad199)*%
X194119850Y-114000000D03*
%TO.P,Module1,200,HDMI0_SCL*%
%TO.N,unconnected-(Module1B-HDMI0_SCL-Pad200)*%
X197199850Y-114000000D03*
%TD*%
D19*
%TO.P,U1,10,VDD*%
%TO.N,+3.3V_b*%
X152976999Y-87010300D03*
%TO.P,U1,9,VSS*%
%TO.N,GND*%
X152976999Y-86510301D03*
%TO.P,U1,8,VSS*%
X152976999Y-86010302D03*
D20*
%TO.P,U1,7,INT*%
%TO.N,BMP_INT*%
X153500000Y-85750000D03*
%TO.P,U1,6,CSB*%
%TO.N,BMP_CS*%
X154000000Y-85750000D03*
D19*
%TO.P,U1,5,SDO*%
%TO.N,BMP_MISO*%
X154523001Y-86010302D03*
%TO.P,U1,4,SDI*%
%TO.N,BMP_MOSI*%
X154523001Y-86510301D03*
%TO.P,U1,3,VSS*%
%TO.N,GND*%
X154523001Y-87010300D03*
D20*
%TO.P,U1,2,SCK*%
%TO.N,BMP_CLK*%
X154000000Y-87270602D03*
%TO.P,U1,1,VDDIO*%
%TO.N,+3.3V_b*%
X153500000Y-87270602D03*
%TD*%
D21*
%TO.P,J4,2,2*%
%TO.N,GND*%
X133770199Y-103316600D03*
%TO.P,J4,1,1*%
%TO.N,+5V*%
X133770199Y-105816600D03*
%TD*%
D12*
%TO.P,C12,1*%
%TO.N,+1.8V*%
X154091377Y-102691377D03*
%TO.P,C12,2*%
%TO.N,GND*%
X155558623Y-104158623D03*
%TD*%
D22*
%TO.P,C2,2*%
%TO.N,GND*%
X151375000Y-85175000D03*
%TO.P,C2,1*%
%TO.N,+3.3V_b*%
X151375000Y-87250000D03*
%TD*%
D17*
%TO.P,C11,1*%
%TO.N,+3.3V_b*%
X147000000Y-103750000D03*
%TO.P,C11,2*%
%TO.N,GND*%
X144925000Y-103750000D03*
%TD*%
D23*
%TO.P,U4,24,SDA/SDI*%
%TO.N,ICM_MOSI*%
X152000001Y-106274000D03*
%TO.P,U4,23,SCL/SCLK*%
%TO.N,ICM_CLK*%
X151599999Y-106274000D03*
%TO.P,U4,22,nCS*%
%TO.N,ICM_CS*%
X151200000Y-106274000D03*
%TO.P,U4,21,AUX_DA*%
%TO.N,unconnected-(U4-AUX_DA-Pad21)*%
X150800000Y-106274000D03*
%TO.P,U4,20,RESV_GND*%
%TO.N,GND*%
X150400001Y-106274000D03*
%TO.P,U4,19,RESV*%
%TO.N,unconnected-(U4-RESV-Pad19)*%
X149999999Y-106274000D03*
D24*
%TO.P,U4,18,GND*%
%TO.N,GND*%
X149476000Y-105750001D03*
%TO.P,U4,17,NC*%
%TO.N,unconnected-(U4-NC-Pad17)*%
X149476000Y-105349999D03*
%TO.P,U4,16,NC*%
%TO.N,unconnected-(U4-NC-Pad16)*%
X149476000Y-104950000D03*
%TO.P,U4,15,NC*%
%TO.N,unconnected-(U4-NC-Pad15)*%
X149476000Y-104550000D03*
%TO.P,U4,14,NC*%
%TO.N,unconnected-(U4-NC-Pad14)*%
X149476000Y-104150001D03*
%TO.P,U4,13,VDD*%
%TO.N,+3.3V_b*%
X149476000Y-103749999D03*
D23*
%TO.P,U4,12,INT1*%
%TO.N,ICM_INT*%
X149999999Y-103226000D03*
%TO.P,U4,11,FSYNC*%
%TO.N,FSYNC*%
X150400001Y-103226000D03*
%TO.P,U4,10,REGOUT*%
%TO.N,Net-(U4-REGOUT)*%
X150800000Y-103226000D03*
%TO.P,U4,9,SDO/AD0*%
%TO.N,ICM_MISO*%
X151200000Y-103226000D03*
%TO.P,U4,8,VDDIO*%
%TO.N,+1.8V*%
X151599999Y-103226000D03*
%TO.P,U4,7,AUX_CL*%
%TO.N,unconnected-(U4-AUX_CL-Pad7)*%
X152000001Y-103226000D03*
D24*
%TO.P,U4,6,NC*%
%TO.N,unconnected-(U4-NC-Pad6)*%
X152524000Y-103749999D03*
%TO.P,U4,5,NC*%
%TO.N,unconnected-(U4-NC-Pad5)*%
X152524000Y-104150001D03*
%TO.P,U4,4,NC*%
%TO.N,unconnected-(U4-NC-Pad4)*%
X152524000Y-104550000D03*
%TO.P,U4,3,NC*%
%TO.N,unconnected-(U4-NC-Pad3)*%
X152524000Y-104950000D03*
%TO.P,U4,2,NC*%
%TO.N,unconnected-(U4-NC-Pad2)*%
X152524000Y-105349999D03*
%TO.P,U4,1,NC*%
%TO.N,unconnected-(U4-NC-Pad1)*%
X152524000Y-105750001D03*
%TD*%
D13*
%TO.P,C13,2*%
%TO.N,GND*%
X154737500Y-99700000D03*
%TO.P,C13,1*%
%TO.N,Net-(U4-REGOUT)*%
X152662500Y-99700000D03*
%TD*%
D25*
%TO.P,J3,6,6*%
%TO.N,PYRO_5*%
X135396699Y-122246699D03*
%TO.P,J3,5,5*%
%TO.N,PYRO_4*%
X137164466Y-124014466D03*
%TO.P,J3,4,4*%
%TO.N,SERVO_4*%
X138932233Y-125782233D03*
%TO.P,J3,3,3*%
%TO.N,SERVO_3*%
X140700000Y-127550000D03*
%TO.P,J3,2,2*%
%TO.N,SERVO_2*%
X142467767Y-129317767D03*
D26*
%TO.P,J3,1,1*%
%TO.N,SERVO_1*%
X144235534Y-131085534D03*
%TD*%
D27*
%TO.N,GND*%
X161750000Y-103300000D03*
X169110000Y-100440000D03*
%TO.N,+3.3V_b*%
X149500000Y-87425000D03*
X146025000Y-89200000D03*
%TO.N,GND*%
X149600000Y-85675000D03*
%TO.N,PYRO_3*%
X133325000Y-92900000D03*
X158125000Y-104775000D03*
%TO.N,GND*%
X153775000Y-98125000D03*
%TO.N,PYRO_1*%
X135750000Y-91950000D03*
X157868223Y-101549074D03*
%TO.N,PYRO_5*%
X169650000Y-106875000D03*
%TO.N,PYRO_4*%
X168500000Y-103900000D03*
X158550000Y-98550000D03*
%TO.N,PYRO_5*%
X159300000Y-99812500D03*
%TO.N,GND*%
X158500000Y-93850000D03*
%TO.N,ICM_INT*%
X157900000Y-95400000D03*
X165900000Y-95400000D03*
%TO.N,SERVO_4*%
X157750000Y-97700000D03*
X167837500Y-102600000D03*
%TO.N,SERVO_3*%
X167250000Y-101900000D03*
X164731156Y-98417913D03*
%TO.N,SERVO_2*%
X164650000Y-99650000D03*
%TO.N,SERVO_1*%
X159650000Y-119150000D03*
X161970000Y-114950000D03*
%TO.N,GND*%
X136850000Y-111000000D03*
%TO.N,+5V*%
X153900000Y-115150000D03*
%TO.N,PYRO_2*%
X133925000Y-98125000D03*
X160265000Y-115285000D03*
%TO.N,+3.3V_b*%
X153050000Y-91200000D03*
X153000000Y-93150000D03*
%TO.N,FSYNC*%
X149950000Y-99500000D03*
X152400000Y-110900000D03*
%TO.N,GND*%
X149400000Y-109400000D03*
%TO.N,BMP_CS*%
X154750000Y-83500000D03*
%TO.N,BMP_INT*%
X153500000Y-82687500D03*
%TO.N,BMP_CS*%
X158450000Y-91650000D03*
%TO.N,BMP_INT*%
X160100000Y-91700000D03*
%TO.N,+1.8V*%
X156600000Y-100950000D03*
%TO.N,ICM_CS*%
X152200000Y-112450000D03*
X156600000Y-106875000D03*
%TO.N,GND*%
X146450000Y-106825000D03*
X141619669Y-90580584D03*
X139675127Y-92525127D03*
X139000000Y-101500000D03*
X137050000Y-99800000D03*
X156400000Y-87484202D03*
X149212500Y-88509606D03*
X139650000Y-116400000D03*
X139650000Y-109650000D03*
X151950000Y-83750000D03*
X142550000Y-120850000D03*
%TO.N,+5V*%
X158000000Y-111000000D03*
%TO.N,GND*%
X143800000Y-103750000D03*
X198200000Y-115200000D03*
X198200000Y-93200000D03*
X192200000Y-111700000D03*
X192700000Y-98600000D03*
X192600000Y-115000000D03*
X192900000Y-94900000D03*
X164125000Y-100612500D03*
X164465000Y-106299000D03*
X164211000Y-113284000D03*
X165075000Y-102400000D03*
X164500000Y-104400000D03*
X156960000Y-96300000D03*
X163300000Y-91400000D03*
X157988000Y-109601000D03*
X155650000Y-102860000D03*
%TO.N,+1.8V*%
X146700000Y-95700000D03*
%TO.N,SERVO_2*%
X166250000Y-102550000D03*
%TD*%
D28*
%TO.N,+5V*%
X133770199Y-105816600D02*
X135850000Y-103736799D01*
X135850000Y-103736799D02*
X135850000Y-95800000D01*
X136875000Y-115850000D02*
X132370000Y-111345000D01*
X132370000Y-111345000D02*
X132370000Y-107216799D01*
X132370000Y-107216799D02*
X133770199Y-105816600D01*
D29*
%TO.N,GND*%
X156450996Y-96809004D02*
X156450996Y-98749004D01*
X156960000Y-96300000D02*
X156450996Y-96809004D01*
D28*
%TO.N,+5V*%
X139090000Y-119640000D02*
X136875000Y-117425000D01*
X142000000Y-122550000D02*
X139090000Y-119640000D01*
X139090000Y-119640000D02*
X139090000Y-118460000D01*
X139090000Y-118460000D02*
X140900000Y-116650000D01*
X138167246Y-115850000D02*
X139267246Y-114750000D01*
X139267246Y-114750000D02*
X141375000Y-114750000D01*
D29*
%TO.N,GND*%
X160199850Y-102800000D02*
X157150000Y-102800000D01*
D30*
%TO.N,PYRO_2*%
X160265000Y-115285000D02*
X161412500Y-114137500D01*
X161412500Y-104987650D02*
X160824850Y-104400000D01*
X161412500Y-114137500D02*
X161412500Y-104987650D01*
X160824850Y-104400000D02*
X160199850Y-104400000D01*
%TO.N,FSYNC*%
X163279850Y-103600000D02*
X164530851Y-103600000D01*
X164530851Y-103600000D02*
X166400000Y-105469149D01*
X166400000Y-105469149D02*
X166400000Y-113925000D01*
X166400000Y-113925000D02*
X163430000Y-116895000D01*
X163430000Y-116895000D02*
X158395000Y-116895000D01*
X158395000Y-116895000D02*
X152400000Y-110900000D01*
%TO.N,ICM_MOSI*%
X152000001Y-106274000D02*
X152000001Y-108500001D01*
X152000001Y-108500001D02*
X159645000Y-116145000D01*
X159645000Y-116145000D02*
X162655000Y-116145000D01*
X162655000Y-116145000D02*
X165650000Y-113150000D01*
X165650000Y-113150000D02*
X165650000Y-106653149D01*
X165650000Y-106653149D02*
X164596851Y-105600000D01*
X164596851Y-105600000D02*
X163279850Y-105600000D01*
%TO.N,ICM_CLK*%
X163279850Y-105200000D02*
X164727181Y-105200000D01*
X166025000Y-113305330D02*
X162810330Y-116520000D01*
X164727181Y-105200000D02*
X166025000Y-106497819D01*
X151599999Y-108649999D02*
X151599999Y-106274000D01*
X166025000Y-106497819D02*
X166025000Y-113305330D01*
X162810330Y-116520000D02*
X159470000Y-116520000D01*
X159470000Y-116520000D02*
X151599999Y-108649999D01*
%TO.N,SERVO_1*%
X160955180Y-104000000D02*
X160199850Y-104000000D01*
X161970000Y-114950000D02*
X161970000Y-105014820D01*
X161970000Y-105014820D02*
X160955180Y-104000000D01*
D29*
%TO.N,GND*%
X161750000Y-103300000D02*
X161250000Y-102800000D01*
X161250000Y-102800000D02*
X160199850Y-102800000D01*
X155650000Y-102860000D02*
X155710000Y-102800000D01*
X155710000Y-102800000D02*
X157150000Y-102800000D01*
X167035000Y-100440000D02*
X169110000Y-100440000D01*
X165075000Y-102400000D02*
X167035000Y-100440000D01*
D30*
%TO.N,SERVO_3*%
X139850000Y-130630330D02*
X139850000Y-128400000D01*
X167250000Y-114230330D02*
X147630330Y-133850000D01*
X167250000Y-101900000D02*
X167250000Y-114230330D01*
X147630330Y-133850000D02*
X143069670Y-133850000D01*
X143069670Y-133850000D02*
X139850000Y-130630330D01*
X139850000Y-128400000D02*
X140700000Y-127550000D01*
D29*
%TO.N,GND*%
X156450996Y-98749004D02*
X158501992Y-100800000D01*
X156450996Y-98749004D02*
X155500000Y-99700000D01*
X155500000Y-99700000D02*
X154737500Y-99700000D01*
D30*
X153775000Y-98125000D02*
X154737500Y-99087500D01*
X154737500Y-99087500D02*
X154737500Y-99700000D01*
X149600000Y-85675000D02*
X150300000Y-86375000D01*
X150300000Y-86375000D02*
X152841698Y-86375000D01*
X152841698Y-86375000D02*
X152976999Y-86510301D01*
%TO.N,+3.3V_b*%
X146025000Y-89200000D02*
X146025000Y-90625000D01*
X147762500Y-92362500D02*
X147762500Y-98387500D01*
X146025000Y-90625000D02*
X147762500Y-92362500D01*
D29*
X147000000Y-99150000D02*
X147625000Y-98525000D01*
X147625000Y-98525000D02*
X147762500Y-98387500D01*
D31*
X151200000Y-87425000D02*
X151375000Y-87250000D01*
D30*
X147625000Y-98525000D02*
X153000000Y-93150000D01*
X149500000Y-87425000D02*
X151200000Y-87425000D01*
%TO.N,PYRO_2*%
X133925000Y-98125000D02*
X133925000Y-90655330D01*
X136569670Y-74600000D02*
X138164466Y-74600000D01*
X133925000Y-90655330D02*
X131962500Y-88692830D01*
X131962500Y-88692830D02*
X131962500Y-79207170D01*
X131962500Y-79207170D02*
X136569670Y-74600000D01*
X138164466Y-74600000D02*
X139732233Y-76167767D01*
D32*
%TO.N,GND*%
X151375000Y-85175000D02*
X151375000Y-84325000D01*
X151375000Y-84325000D02*
X151950000Y-83750000D01*
X152976999Y-86010302D02*
X152210302Y-86010302D01*
X152210302Y-86010302D02*
X151375000Y-85175000D01*
D30*
%TO.N,+3.3V_b*%
X152976999Y-87010300D02*
X151614700Y-87010300D01*
X151614700Y-87010300D02*
X151375000Y-87250000D01*
%TO.N,+3.3V_a*%
X164100000Y-110604850D02*
X164100000Y-111100000D01*
X164100000Y-111100000D02*
X164000000Y-111200000D01*
X164000000Y-111200000D02*
X163279850Y-111200000D01*
X163279850Y-109600000D02*
X163904850Y-109600000D01*
X164100000Y-109795150D02*
X164100000Y-110604850D01*
X163904850Y-109600000D02*
X164100000Y-109795150D01*
X164100000Y-110604850D02*
X163904850Y-110800000D01*
X163904850Y-110800000D02*
X163279850Y-110800000D01*
%TO.N,PYRO_3*%
X133325000Y-90585660D02*
X131587500Y-88848160D01*
X131587500Y-88848160D02*
X131587500Y-79051840D01*
X133325000Y-92900000D02*
X133325000Y-90585660D01*
X137614340Y-73025000D02*
X140125000Y-73025000D01*
X131587500Y-79051840D02*
X137614340Y-73025000D01*
X140125000Y-73025000D02*
X141500000Y-74400000D01*
%TO.N,PYRO_1*%
X135150000Y-76550000D02*
X136578932Y-76550000D01*
X135750000Y-91950000D02*
X132337500Y-88537500D01*
X132337500Y-88537500D02*
X132337500Y-79362500D01*
X132337500Y-79362500D02*
X135150000Y-76550000D01*
X136578932Y-76550000D02*
X137964466Y-77935534D01*
%TO.N,PYRO_3*%
X160199850Y-103600000D02*
X159300000Y-103600000D01*
X159300000Y-103600000D02*
X158125000Y-104775000D01*
%TO.N,ICM_CS*%
X156600000Y-106875000D02*
X156600000Y-105350000D01*
X158750000Y-103200000D02*
X160199850Y-103200000D01*
X156600000Y-105350000D02*
X158750000Y-103200000D01*
D29*
%TO.N,GND*%
X157150000Y-102800000D02*
X156917246Y-102800000D01*
X156917246Y-102800000D02*
X155558623Y-104158623D01*
D30*
%TO.N,+1.8V*%
X156025000Y-101200000D02*
X152162500Y-101200000D01*
X156350000Y-101200000D02*
X156025000Y-101200000D01*
X156025000Y-101200000D02*
X155582754Y-101200000D01*
X155582754Y-101200000D02*
X154091377Y-102691377D01*
D29*
%TO.N,GND*%
X158501992Y-100800000D02*
X160199850Y-100800000D01*
D30*
%TO.N,PYRO_4*%
X158550000Y-98550000D02*
X158550000Y-98646008D01*
X159103992Y-99200000D02*
X160199850Y-99200000D01*
X158550000Y-98646008D02*
X159103992Y-99200000D01*
D29*
%TO.N,GND*%
X159004000Y-97050000D02*
X159175000Y-97221000D01*
X159175000Y-97221000D02*
X159175000Y-98723000D01*
X159252000Y-98800000D02*
X160199850Y-98800000D01*
X159175000Y-98723000D02*
X159252000Y-98800000D01*
D30*
%TO.N,SERVO_4*%
X157750000Y-97700000D02*
X157712500Y-97737500D01*
X157712500Y-97737500D02*
X157712500Y-99462500D01*
X158650000Y-100400000D02*
X160199850Y-100400000D01*
X157712500Y-99462500D02*
X158650000Y-100400000D01*
%TO.N,ICM_INT*%
X149999999Y-101699999D02*
X149999999Y-103226000D01*
X157900000Y-95400000D02*
X152200000Y-95400000D01*
X148900000Y-100600000D02*
X149999999Y-101699999D01*
X152200000Y-95400000D02*
X148900000Y-98700000D01*
X148900000Y-98700000D02*
X148900000Y-100600000D01*
%TO.N,PYRO_1*%
X158719149Y-102400000D02*
X157868223Y-101549074D01*
X160199850Y-102400000D02*
X158719149Y-102400000D01*
D29*
%TO.N,GND*%
X164125000Y-100612500D02*
X163912500Y-100400000D01*
X163912500Y-100400000D02*
X163279850Y-100400000D01*
X165075000Y-102400000D02*
X163279850Y-102400000D01*
D30*
X146450000Y-106825000D02*
X147524999Y-105750001D01*
X147524999Y-105750001D02*
X149476000Y-105750001D01*
%TO.N,PYRO_5*%
X169650000Y-106875000D02*
X169650000Y-113421320D01*
X169650000Y-113421320D02*
X147971320Y-135100000D01*
X147971320Y-135100000D02*
X142289340Y-135100000D01*
X142289340Y-135100000D02*
X134600000Y-127410660D01*
X134600000Y-127410660D02*
X134600000Y-123100000D01*
X134600000Y-123100000D02*
X134700000Y-123000000D01*
X134700000Y-123000000D02*
X134700000Y-122943398D01*
X134700000Y-122943398D02*
X135396699Y-122246699D01*
%TO.N,PYRO_4*%
X137164466Y-124014466D02*
X136400000Y-124778932D01*
X168500000Y-114040990D02*
X168500000Y-103900000D01*
X142444670Y-134725000D02*
X147815990Y-134725000D01*
X147815990Y-134725000D02*
X168500000Y-114040990D01*
X136400000Y-124778932D02*
X136400000Y-128680330D01*
X136400000Y-128680330D02*
X142444670Y-134725000D01*
%TO.N,PYRO_5*%
X159512500Y-99600000D02*
X159300000Y-99812500D01*
X160199850Y-99600000D02*
X159512500Y-99600000D01*
%TO.N,ICM_MISO*%
X160199850Y-101200000D02*
X158350000Y-101200000D01*
X158350000Y-101200000D02*
X157512500Y-100362500D01*
X151200000Y-101632170D02*
X151200000Y-103226000D01*
X157512500Y-100362500D02*
X155806649Y-100362500D01*
X152007170Y-100825000D02*
X151200000Y-101632170D01*
X155806649Y-100362500D02*
X155344149Y-100825000D01*
X155344149Y-100825000D02*
X152007170Y-100825000D01*
%TO.N,+1.8V*%
X156600000Y-100950000D02*
X156350000Y-101200000D01*
X156600000Y-101032754D02*
X156600000Y-100950000D01*
D29*
%TO.N,GND*%
X159004000Y-94354000D02*
X158500000Y-93850000D01*
X159004000Y-94945850D02*
X159004000Y-94354000D01*
X159004000Y-96450000D02*
X159004000Y-97050000D01*
X159004000Y-97050000D02*
X159104000Y-97050000D01*
X159104000Y-97050000D02*
X159354000Y-96800000D01*
X159004000Y-96145850D02*
X159004000Y-96450000D01*
X159354000Y-96800000D02*
X160199850Y-96800000D01*
D30*
%TO.N,FSYNC*%
X149950000Y-99500000D02*
X150400001Y-99950001D01*
X150400001Y-99950001D02*
X150400001Y-103226000D01*
%TO.N,ICM_INT*%
X166850000Y-99055251D02*
X166850000Y-96050000D01*
X163279850Y-101200000D02*
X164705251Y-101200000D01*
X166200000Y-95400000D02*
X165900000Y-95400000D01*
X164705251Y-101200000D02*
X166850000Y-99055251D01*
X166850000Y-96050000D02*
X166200000Y-95400000D01*
%TO.N,SERVO_3*%
X164731156Y-98417913D02*
X163949069Y-99200000D01*
X163949069Y-99200000D02*
X163279850Y-99200000D01*
%TO.N,BMP_CLK*%
X165000000Y-101750000D02*
X167500000Y-99250000D01*
X163867350Y-101600000D02*
X164017350Y-101750000D01*
X167500000Y-99250000D02*
X167500000Y-91000000D01*
X167500000Y-91000000D02*
X157500000Y-81000000D01*
X163279850Y-101600000D02*
X163867350Y-101600000D01*
X157500000Y-81000000D02*
X152000000Y-81000000D01*
X152000000Y-81000000D02*
X148600000Y-84400000D01*
X148600000Y-90550000D02*
X150150000Y-92100000D01*
X150150000Y-92100000D02*
X153200000Y-92100000D01*
X148600000Y-84400000D02*
X148600000Y-90550000D01*
X164017350Y-101750000D02*
X165000000Y-101750000D01*
X153200000Y-92100000D02*
X154000000Y-91300000D01*
X154000000Y-91300000D02*
X154000000Y-87270602D01*
%TO.N,SERVO_2*%
X141650000Y-131900000D02*
X141650000Y-130600000D01*
X166775000Y-103075000D02*
X166775000Y-114175000D01*
X166250000Y-102550000D02*
X166775000Y-103075000D01*
X166775000Y-114175000D02*
X147500000Y-133450000D01*
X147500000Y-133450000D02*
X143200000Y-133450000D01*
X141650000Y-130600000D02*
X142467767Y-129782233D01*
X142467767Y-129782233D02*
X142467767Y-129317767D01*
X143200000Y-133450000D02*
X141650000Y-131900000D01*
%TO.N,SERVO_1*%
X159650000Y-119150000D02*
X158900000Y-119900000D01*
X147344670Y-133075000D02*
X146225000Y-133075000D01*
X158900000Y-119900000D02*
X158900000Y-121519670D01*
X158900000Y-121519670D02*
X147344670Y-133075000D01*
X146225000Y-133075000D02*
X144235534Y-131085534D01*
%TO.N,SERVO_2*%
X163279850Y-99600000D02*
X164600000Y-99600000D01*
X164600000Y-99600000D02*
X164650000Y-99650000D01*
D29*
%TO.N,+3.3V_b*%
X143650000Y-112650000D02*
X143650000Y-108350000D01*
X143650000Y-108350000D02*
X147000000Y-105000000D01*
X147000000Y-105000000D02*
X147000000Y-103750000D01*
D28*
%TO.N,+5V*%
X153900000Y-115150000D02*
X146500000Y-122550000D01*
X146500000Y-122550000D02*
X142000000Y-122550000D01*
X136875000Y-117425000D02*
X136875000Y-115850000D01*
D31*
%TO.N,GND*%
X142550000Y-120850000D02*
X141575000Y-119875000D01*
X141575000Y-119875000D02*
X141575000Y-118650000D01*
D28*
X137666377Y-111816377D02*
X136850000Y-111000000D01*
X137666377Y-113416377D02*
X137666377Y-111816377D01*
%TO.N,+5V*%
X135850000Y-95800000D02*
X135850000Y-93775000D01*
X135850000Y-95800000D02*
X136313945Y-95800000D01*
X136313945Y-95800000D02*
X137713945Y-94400000D01*
X135850000Y-93775000D02*
X137862500Y-91762500D01*
%TO.N,GND*%
X137050000Y-98685789D02*
X138057620Y-97678169D01*
X137050000Y-99800000D02*
X137050000Y-98685789D01*
%TO.N,+5V*%
X136875000Y-115850000D02*
X138167246Y-115850000D01*
%TO.N,GND*%
X139000000Y-101500000D02*
X139000000Y-99917767D01*
X139000000Y-99917767D02*
X139648609Y-99269158D01*
D30*
%TO.N,+3.3V_b*%
X153050000Y-91200000D02*
X153050000Y-89200000D01*
D31*
X153050000Y-89200000D02*
X153000000Y-89150000D01*
D29*
X147000000Y-103750000D02*
X147000000Y-99150000D01*
D30*
%TO.N,GND*%
X149400000Y-109400000D02*
X150400001Y-108399999D01*
X150400001Y-108399999D02*
X150400001Y-106274000D01*
%TO.N,ICM_CS*%
X152200000Y-112450000D02*
X151200000Y-111450000D01*
X151200000Y-111450000D02*
X151200000Y-106274000D01*
%TO.N,BMP_CS*%
X160199850Y-101600000D02*
X160824850Y-101600000D01*
X160824850Y-101600000D02*
X161100000Y-101324850D01*
X161100000Y-101324850D02*
X161100000Y-94300000D01*
X161100000Y-94300000D02*
X158450000Y-91650000D01*
%TO.N,BMP_INT*%
X161475000Y-101480180D02*
X160955180Y-102000000D01*
X161475000Y-93075000D02*
X161475000Y-101480180D01*
X160100000Y-91700000D02*
X161475000Y-93075000D01*
X160955180Y-102000000D02*
X160199850Y-102000000D01*
%TO.N,BMP_CS*%
X154750000Y-83500000D02*
X154000000Y-84250000D01*
X154000000Y-84250000D02*
X154000000Y-85750000D01*
%TO.N,BMP_INT*%
X153500000Y-82687500D02*
X153500000Y-85750000D01*
%TO.N,+3.3V_b*%
X153500000Y-87270602D02*
X153500000Y-88650000D01*
X153500000Y-88650000D02*
X153000000Y-89150000D01*
%TO.N,BMP_MOSI*%
X163279850Y-102800000D02*
X162654850Y-102800000D01*
X162654850Y-102800000D02*
X162025000Y-102170150D01*
X162025000Y-92278351D02*
X156256950Y-86510301D01*
X162025000Y-102170150D02*
X162025000Y-92278351D01*
X156256950Y-86510301D02*
X154523001Y-86510301D01*
%TO.N,BMP_MISO*%
X163279850Y-102000000D02*
X162654850Y-102000000D01*
X162400000Y-101745150D02*
X162400000Y-92123021D01*
X162654850Y-102000000D02*
X162400000Y-101745150D01*
X156287281Y-86010302D02*
X154523001Y-86010302D01*
X162400000Y-92123021D02*
X156287281Y-86010302D01*
D29*
%TO.N,GND*%
X163300000Y-91400000D02*
X163300000Y-92546100D01*
X163300000Y-92546100D02*
X163279850Y-92566250D01*
X163279850Y-92566250D02*
X163279850Y-93014800D01*
D30*
%TO.N,Net-(U4-REGOUT)*%
X150800000Y-103226000D02*
X150800000Y-100975000D01*
X150800000Y-100975000D02*
X152075000Y-99700000D01*
X152075000Y-99700000D02*
X152662500Y-99700000D01*
%TO.N,+1.8V*%
X152162500Y-101200000D02*
X151599999Y-101762501D01*
X151599999Y-101762501D02*
X151599999Y-103226000D01*
D31*
%TO.N,+5V*%
X138089824Y-91535176D02*
X137862500Y-91762500D01*
X140028679Y-91535176D02*
X138089824Y-91535176D01*
D28*
X137713945Y-94400000D02*
X139524865Y-96210920D01*
D30*
%TO.N,+3.3V_b*%
X147000000Y-103750000D02*
X149475999Y-103750000D01*
X149475999Y-103750000D02*
X149476000Y-103749999D01*
D31*
%TO.N,+5V*%
X142017418Y-93523916D02*
X140028679Y-91535176D01*
%TO.N,GND*%
X141619669Y-90651294D02*
X141619669Y-90580584D01*
X143299049Y-92330674D02*
X141619669Y-90651294D01*
X141345666Y-94195666D02*
X139675127Y-92525127D01*
D28*
%TO.N,+5V*%
X139524867Y-96210921D02*
X140673915Y-95061875D01*
X140673915Y-95061875D02*
X140673916Y-94867419D01*
%TO.N,Net-(U5-BP)*%
X141115857Y-97801910D02*
X142282584Y-96635186D01*
X142282584Y-96635186D02*
X142282584Y-96476087D01*
%TO.N,+5V*%
X141375000Y-116650000D02*
X140900000Y-116650000D01*
D30*
%TO.N,GND*%
X155926098Y-87010300D02*
X156400000Y-87484202D01*
X154523001Y-87010300D02*
X155926098Y-87010300D01*
X149852891Y-89149998D02*
X149212500Y-88509606D01*
X150925000Y-89150001D02*
X149852891Y-89149998D01*
D31*
X141575000Y-111575000D02*
X139650000Y-109650000D01*
X141575000Y-112650000D02*
X141575000Y-111575000D01*
%TO.N,+3.3V_b*%
X143650000Y-112650000D02*
X143650000Y-114750000D01*
%TO.N,Net-(U3-BP)*%
X143650000Y-118650000D02*
X143650000Y-116650000D01*
D30*
%TO.N,+5V*%
X160199850Y-111200000D02*
X158200000Y-111200000D01*
X158200000Y-111200000D02*
X158000000Y-111000000D01*
X158600000Y-111600000D02*
X158000000Y-111000000D01*
X160199850Y-111600000D02*
X158600000Y-111600000D01*
X160199850Y-110800000D02*
X158200000Y-110800000D01*
X158200000Y-110800000D02*
X158000000Y-111000000D01*
X160199850Y-110400000D02*
X158600000Y-110400000D01*
X158600000Y-110400000D02*
X158000000Y-111000000D01*
X160199850Y-109600000D02*
X159400000Y-109600000D01*
X159400000Y-109600000D02*
X159000000Y-110000000D01*
X160199850Y-110000000D02*
X159000000Y-110000000D01*
X159000000Y-110000000D02*
X158000000Y-111000000D01*
%TO.N,+1.8V*%
X143626086Y-95132584D02*
X144766295Y-93992373D01*
X144766295Y-93992373D02*
X144766296Y-93797918D01*
%TO.N,GND*%
X144925000Y-103750000D02*
X143800000Y-103750000D01*
D29*
X164500000Y-104400000D02*
X163279850Y-104400000D01*
X198200000Y-113149850D02*
X198200000Y-115200000D01*
X197199850Y-113600000D02*
X197749850Y-113600000D01*
X197749850Y-113600000D02*
X198200000Y-113149850D01*
X198200000Y-113149850D02*
X198200000Y-112049850D01*
X197199850Y-112400000D02*
X197849850Y-112400000D01*
X197849850Y-112400000D02*
X198200000Y-112049850D01*
X198200000Y-112049850D02*
X198200000Y-110849850D01*
X197199850Y-111200000D02*
X197849850Y-111200000D01*
X198200000Y-110849850D02*
X198200000Y-109649850D01*
X197849850Y-111200000D02*
X198200000Y-110849850D01*
X197199850Y-110000000D02*
X197849850Y-110000000D01*
X197849850Y-110000000D02*
X198200000Y-109649850D01*
X198200000Y-109649850D02*
X198200000Y-108449850D01*
X197199850Y-108800000D02*
X197849850Y-108800000D01*
X197849850Y-108800000D02*
X198200000Y-108449850D01*
X198200000Y-108449850D02*
X198200000Y-107249850D01*
X197199850Y-107600000D02*
X197849850Y-107600000D01*
X197849850Y-107600000D02*
X198200000Y-107249850D01*
X198200000Y-107249850D02*
X198200000Y-106049850D01*
X198200000Y-104849850D02*
X198200000Y-104700000D01*
X198200000Y-104700000D02*
X198200000Y-103649850D01*
X197199850Y-106400000D02*
X197849850Y-106400000D01*
X197849850Y-106400000D02*
X198200000Y-106049850D01*
X198200000Y-106049850D02*
X198200000Y-104700000D01*
X197199850Y-105200000D02*
X197849850Y-105200000D01*
X197849850Y-105200000D02*
X198200000Y-104849850D01*
X197199850Y-104000000D02*
X197849850Y-104000000D01*
X198200000Y-103649850D02*
X198200000Y-102449850D01*
X197199850Y-102800000D02*
X197849850Y-102800000D01*
X198200000Y-102449850D02*
X198200000Y-101249850D01*
X197849850Y-102800000D02*
X198200000Y-102449850D01*
X197199850Y-101600000D02*
X197849850Y-101600000D01*
X197849850Y-101600000D02*
X198200000Y-101249850D01*
X198200000Y-101249850D02*
X198200000Y-100049850D01*
X197199850Y-100400000D02*
X197849850Y-100400000D01*
X197849850Y-100400000D02*
X198200000Y-100049850D01*
X198200000Y-100049850D02*
X198200000Y-98700000D01*
X197199850Y-99200000D02*
X197700000Y-99200000D01*
X197700000Y-99200000D02*
X198200000Y-98700000D01*
X198200000Y-98700000D02*
X198200000Y-97649850D01*
X197199850Y-98000000D02*
X197849850Y-98000000D01*
X197849850Y-98000000D02*
X198200000Y-97649850D01*
X198200000Y-97649850D02*
X198200000Y-95149850D01*
X198200000Y-95149850D02*
X198200000Y-93200000D01*
X197749850Y-95600000D02*
X198200000Y-95149850D01*
X197199850Y-95600000D02*
X197749850Y-95600000D01*
X193034925Y-109500000D02*
X193034925Y-110200000D01*
X192200000Y-111034925D02*
X192200000Y-111700000D01*
X193034925Y-110200000D02*
X192200000Y-111034925D01*
X193034925Y-110200000D02*
X193034925Y-110434925D01*
X193130150Y-99030150D02*
X192700000Y-98600000D01*
X193300000Y-99030150D02*
X193130150Y-99030150D01*
X193034925Y-106834925D02*
X193034925Y-107100000D01*
X193034925Y-107100000D02*
X193034925Y-108134925D01*
X194119850Y-105200000D02*
X193469850Y-105200000D01*
X193469850Y-105200000D02*
X193034925Y-105634925D01*
X193034925Y-105634925D02*
X193034925Y-107100000D01*
X194119850Y-106400000D02*
X193469850Y-106400000D01*
X193469850Y-106400000D02*
X193034925Y-106834925D01*
X193034925Y-109234925D02*
X193034925Y-109500000D01*
X193034925Y-108134925D02*
X193034925Y-109500000D01*
X194119850Y-107600000D02*
X193569850Y-107600000D01*
X193569850Y-107600000D02*
X193034925Y-108134925D01*
X194119850Y-108800000D02*
X193469850Y-108800000D01*
X193469850Y-108800000D02*
X193034925Y-109234925D01*
X194119850Y-110000000D02*
X193469850Y-110000000D01*
X193469850Y-110000000D02*
X193034925Y-110434925D01*
X193034925Y-110434925D02*
X193034925Y-111634925D01*
X194119850Y-111200000D02*
X193469850Y-111200000D01*
X193469850Y-111200000D02*
X193034925Y-111634925D01*
X193034925Y-111634925D02*
X193034925Y-112934925D01*
X193469850Y-113600000D02*
X193034925Y-114034925D01*
X193034925Y-114034925D02*
X192600000Y-114469850D01*
X194119850Y-112400000D02*
X193569850Y-112400000D01*
X193569850Y-112400000D02*
X193034925Y-112934925D01*
X193034925Y-112934925D02*
X193034925Y-114034925D01*
X192600000Y-114469850D02*
X192600000Y-115000000D01*
X194119850Y-113600000D02*
X193469850Y-113600000D01*
X194119850Y-101600000D02*
X193469850Y-101600000D01*
X193469850Y-101600000D02*
X193300000Y-101430150D01*
X193300000Y-101430150D02*
X193300000Y-100230150D01*
X194119850Y-100400000D02*
X193469850Y-100400000D01*
X193469850Y-100400000D02*
X193300000Y-100230150D01*
X193300000Y-100230150D02*
X193300000Y-99030150D01*
X194119850Y-99200000D02*
X193469850Y-99200000D01*
X193300000Y-99030150D02*
X193300000Y-97830150D01*
X194119850Y-98000000D02*
X193469850Y-98000000D01*
X193469850Y-98000000D02*
X193300000Y-97830150D01*
X193300000Y-97830150D02*
X193300000Y-96600000D01*
X193500000Y-95600000D02*
X193300000Y-95400000D01*
X193300000Y-95400000D02*
X192900000Y-95000000D01*
X194119850Y-96800000D02*
X193500000Y-96800000D01*
X193500000Y-96800000D02*
X193300000Y-96600000D01*
X193300000Y-96600000D02*
X193300000Y-95400000D01*
X192800000Y-94900000D02*
X192900000Y-95000000D01*
X192900000Y-94900000D02*
X192800000Y-94900000D01*
X192900000Y-95000000D02*
X192900000Y-94900000D01*
X194119850Y-95600000D02*
X193500000Y-95600000D01*
X159674925Y-104800000D02*
X158800000Y-105674925D01*
X163322000Y-93014800D02*
X164236400Y-93929200D01*
X164236400Y-93929200D02*
X164236400Y-95402400D01*
X164708750Y-108021100D02*
X163929850Y-108800000D01*
X160199850Y-104800000D02*
X159674925Y-104800000D01*
X158851600Y-106476800D02*
X159328400Y-106000000D01*
X159328400Y-106000000D02*
X160199850Y-106000000D01*
X164211000Y-113284000D02*
X163895000Y-113600000D01*
X164708750Y-106944250D02*
X164708750Y-108021100D01*
X160199850Y-95600000D02*
X159549850Y-95600000D01*
X163929850Y-107200000D02*
X163279850Y-107200000D01*
X158399000Y-109601000D02*
X158800000Y-109200000D01*
X159004000Y-94945850D02*
X159004000Y-96145850D01*
X164236400Y-95402400D02*
X164038800Y-95600000D01*
X164708750Y-106944250D02*
X164185600Y-106944250D01*
X164211000Y-96545400D02*
X163956400Y-96800000D01*
X158800000Y-109149850D02*
X159549850Y-108400000D01*
X158800000Y-107950000D02*
X158800000Y-107747600D01*
X163279850Y-94400000D02*
X163279850Y-93014800D01*
X164211000Y-95427800D02*
X164211000Y-96545400D01*
X163956400Y-96800000D02*
X163279850Y-96800000D01*
X164465000Y-106700500D02*
X164708750Y-106944250D01*
X164236400Y-95402400D02*
X164211000Y-95427800D01*
X159347600Y-107200000D02*
X160199850Y-107200000D01*
X163279850Y-93014800D02*
X163322000Y-93014800D01*
X164465000Y-106299000D02*
X164465000Y-106700500D01*
X158800000Y-107200000D02*
X158800000Y-107950000D01*
X157988000Y-109601000D02*
X158399000Y-109601000D01*
X164465000Y-106299000D02*
X164166000Y-106000000D01*
X163895000Y-113600000D02*
X163279850Y-113600000D01*
X158800000Y-109200000D02*
X158800000Y-108400000D01*
X158800000Y-106476800D02*
X158851600Y-106476800D01*
X160199850Y-94400000D02*
X159549850Y-94400000D01*
X163929850Y-108800000D02*
X163279850Y-108800000D01*
X158800000Y-109200000D02*
X158800000Y-109149850D01*
X164038800Y-95600000D02*
X163279850Y-95600000D01*
X158800000Y-106000000D02*
X158800000Y-106476800D01*
X158800000Y-105674925D02*
X158800000Y-106000000D01*
X158800000Y-107747600D02*
X159347600Y-107200000D01*
X164185600Y-106944250D02*
X163929850Y-107200000D01*
X164211000Y-98118850D02*
X164211000Y-96545400D01*
X159549850Y-108400000D02*
X160199850Y-108400000D01*
X158800000Y-107950000D02*
X158800000Y-108400000D01*
X164166000Y-106000000D02*
X163279850Y-106000000D01*
X159549850Y-94400000D02*
X159004000Y-94945850D01*
X158800000Y-106476800D02*
X158800000Y-107200000D01*
X159549850Y-95600000D02*
X159004000Y-96145850D01*
%TO.N,+3.3V_a*%
X163279850Y-110800000D02*
X163529850Y-110800000D01*
%TO.N,GND*%
X163279850Y-98400000D02*
X163929850Y-98400000D01*
X163929850Y-98400000D02*
X164211000Y-98118850D01*
X193469850Y-99200000D02*
X193300000Y-99030150D01*
X197849850Y-104000000D02*
X198200000Y-103649850D01*
D31*
X139650000Y-116400000D02*
X140350000Y-115700000D01*
X140350000Y-115700000D02*
X141375000Y-115700000D01*
D30*
%TO.N,SERVO_4*%
X167837500Y-102600000D02*
X167837500Y-114173160D01*
X138050000Y-126664466D02*
X138932233Y-125782233D01*
X142600000Y-134350000D02*
X138050000Y-129800000D01*
X167837500Y-114173160D02*
X147660660Y-134350000D01*
X138050000Y-129800000D02*
X138050000Y-126664466D01*
X147660660Y-134350000D02*
X142600000Y-134350000D01*
%TO.N,+1.8V*%
X144797919Y-93797919D02*
X144766294Y-93797919D01*
X146700000Y-95700000D02*
X144797919Y-93797919D01*
%TD*%
M02*
